solid csg.js
facet normal 0 0 -1
outer loop
vertex 2 3.4641016151377544 0
vertex 2.5 2.598076211353316 0
vertex 0.5 2.598076211353316 0
endloop
endfacet
facet normal 0 0 -1
outer loop
vertex 2 3.4641016151377544 0
vertex 0.5 2.598076211353316 0
vertex 1 3.4641016151377544 0
endloop
endfacet
facet normal 0 0 -1
outer loop
vertex 0.5 2.598076211353316 0
vertex 2.5 2.598076211353316 0
vertex 2 1.7320508075688772 0
endloop
endfacet
facet normal 0 0 -1
outer loop
vertex 0.5 2.598076211353316 0
vertex 2 1.7320508075688772 0
vertex -1 1.7320508075688772 0
endloop
endfacet
facet normal 0 0 -1
outer loop
vertex 0.5 2.598076211353316 0
vertex -1 1.7320508075688772 0
vertex -0.5 2.598076211353316 0
endloop
endfacet
facet normal 0 0 -1
outer loop
vertex 2 1.7320508075688772 0
vertex 2.5 0.8660254037844386 0
vertex -0.5000000000000002 0.8660254037844386 0
endloop
endfacet
facet normal 0 0 -1
outer loop
vertex 2 1.7320508075688772 0
vertex -0.5000000000000002 0.8660254037844386 0
vertex -1 1.7320508075688772 0
endloop
endfacet
facet normal 0 0 -1
outer loop
vertex 2.5 0.8660254037844386 0
vertex 2 0 0
vertex 0.9999999999999998 0 0
endloop
endfacet
facet normal 0 0 -1
outer loop
vertex 2.5 0.8660254037844386 0
vertex 0.9999999999999998 0 0
vertex -1 0 0
endloop
endfacet
facet normal 0 0 -1
outer loop
vertex 2.5 0.8660254037844386 0
vertex -1 0 0
vertex -0.5000000000000002 0.8660254037844386 0
endloop
endfacet
facet normal 0 0 -1
outer loop
vertex 0.9999999999999998 0 0
vertex 0.5 -0.8660254037844386 0
vertex -0.5000000000000002 -0.8660254037844386 0
endloop
endfacet
facet normal 0 0 -1
outer loop
vertex 0.9999999999999998 0 0
vertex -0.5000000000000002 -0.8660254037844386 0
vertex -1 0 0
endloop
endfacet
facet normal 0 0 1
outer loop
vertex -0.5 0.8660254037844386 5
vertex -1 -4.440892098500626e-16 5
vertex -0.5000000000000001 -0.8660254037844387 5
endloop
endfacet
facet normal 0 0 1
outer loop
vertex -0.5 0.8660254037844386 5
vertex -0.5000000000000001 -0.8660254037844387 5
vertex 0.5000000000000002 -0.8660254037844386 5
endloop
endfacet
facet normal 0 0 1
outer loop
vertex -0.5 0.8660254037844386 5
vertex 0.5000000000000002 -0.8660254037844386 5
vertex 1.0000000000000002 2.220446049250313e-16 5
endloop
endfacet
facet normal 0 0 1
outer loop
vertex -0.5 0.8660254037844386 5
vertex 1.0000000000000002 2.220446049250313e-16 5
vertex 0.5000000000000002 0.8660254037844386 5
endloop
endfacet
facet normal 0.8660254037844387 -0.5000000000000001 0
outer loop
vertex 2.500000000000001 2.598076211353316 2.000000000000001
vertex 2.000000000000001 1.7320508075688776 2.000000000000001
vertex 2 1.7320508075688772 0
endloop
endfacet
facet normal 0.8660254037844387 -0.5000000000000001 0
outer loop
vertex 2.500000000000001 2.598076211353316 2.000000000000001
vertex 2 1.7320508075688772 0
vertex 2.5 2.598076211353316 0
endloop
endfacet
facet normal 0.8660254037844386 -0.4999999999999999 2.478074198696142e-16
outer loop
vertex 1.0000000000000004 1.1102230246251565e-16 4
vertex 1.0000000000000002 2.220446049250313e-16 5
vertex 0.5000000000000002 -0.8660254037844386 5
endloop
endfacet
facet normal 0.8660254037844386 -0.4999999999999999 2.478074198696142e-16
outer loop
vertex 1.0000000000000004 1.1102230246251565e-16 4
vertex 0.5000000000000002 -0.8660254037844386 5
vertex 0.5 -0.8660254037844386 0
endloop
endfacet
facet normal 0.8660254037844386 -0.4999999999999999 2.478074198696142e-16
outer loop
vertex 1.0000000000000004 1.1102230246251565e-16 4
vertex 0.5 -0.8660254037844386 0
vertex 0.9999999999999998 0 0
endloop
endfacet
facet normal -0.8660254037844388 0.4999999999999999 0
outer loop
vertex -1 -4.440892098500626e-16 5
vertex -0.5 0.8660254037844386 5
vertex -0.5 0.8660254037844386 3
endloop
endfacet
facet normal -0.8660254037844388 0.4999999999999999 0
outer loop
vertex -1 -4.440892098500626e-16 5
vertex -0.5 0.8660254037844386 3
vertex -0.5000000000000002 0.8660254037844386 0
endloop
endfacet
facet normal -0.8660254037844388 0.4999999999999999 0
outer loop
vertex -1 -4.440892098500626e-16 5
vertex -0.5000000000000002 0.8660254037844386 0
vertex -1 0 0
endloop
endfacet
facet normal -0.8660254037844387 0.5000000000000001 0
outer loop
vertex 0.5 2.5980762113533165 2.000000000000001
vertex 1.0000000000000002 3.4641016151377553 2.000000000000001
vertex 1 3.4641016151377544 0
endloop
endfacet
facet normal -0.8660254037844387 0.5000000000000001 0
outer loop
vertex 0.5 2.5980762113533165 2.000000000000001
vertex 1 3.4641016151377544 0
vertex 0.5 2.598076211353316 0
endloop
endfacet
facet normal -0.8660254037844387 -0.5 0
outer loop
vertex -0.5000000000000001 -0.8660254037844387 5
vertex -1 -4.440892098500626e-16 5
vertex -1 0 0
endloop
endfacet
facet normal -0.8660254037844387 -0.5 0
outer loop
vertex -0.5000000000000001 -0.8660254037844387 5
vertex -1 0 0
vertex -0.5000000000000002 -0.8660254037844386 0
endloop
endfacet
facet normal 0 -1 0
outer loop
vertex 0.5 -0.8660254037844386 0
vertex 0.5000000000000002 -0.8660254037844386 5
vertex -0.5000000000000001 -0.8660254037844387 5
endloop
endfacet
facet normal 0 -1 0
outer loop
vertex 0.5 -0.8660254037844386 0
vertex -0.5000000000000001 -0.8660254037844387 5
vertex -0.5000000000000002 -0.8660254037844386 0
endloop
endfacet
facet normal 0.8660254037844387 0.5 0
outer loop
vertex 0.5000000000000002 0.8660254037844386 5
vertex 1.0000000000000002 2.220446049250313e-16 5
vertex 1.0000000000000004 1.1102230246251565e-16 4
endloop
endfacet
facet normal 0.8660254037844387 0.5 0
outer loop
vertex 0.5000000000000002 0.8660254037844386 5
vertex 1.0000000000000004 1.1102230246251565e-16 4
vertex 0.5000000000000003 0.8660254037844388 4
endloop
endfacet
facet normal 0 0 1
outer loop
vertex 1 1.7320508075688772 4
vertex 0.5000000000000003 0.8660254037844388 4
vertex 1.0000000000000004 1.1102230246251565e-16 4
endloop
endfacet
facet normal 0 0 1
outer loop
vertex 1 1.7320508075688772 4
vertex 1.0000000000000004 1.1102230246251565e-16 4
vertex 2 0 4
endloop
endfacet
facet normal 0 0 1
outer loop
vertex 1 1.7320508075688772 4
vertex 2 0 4
vertex 2.5 0.8660254037844388 4
endloop
endfacet
facet normal 0 0 1
outer loop
vertex 1 1.7320508075688772 4
vertex 2.5 0.8660254037844388 4
vertex 2 1.7320508075688772 4
endloop
endfacet
facet normal 0.8660254037844388 -0.49999999999999983 0
outer loop
vertex 2.5 0.8660254037844388 4
vertex 2 0 4
vertex 2 0 0
endloop
endfacet
facet normal 0.8660254037844388 -0.49999999999999983 0
outer loop
vertex 2.5 0.8660254037844388 4
vertex 2 0 0
vertex 2.5 0.8660254037844386 0
endloop
endfacet
facet normal 0.8660254037844386 0.5000000000000001 4.956148397392286e-16
outer loop
vertex 2.000000000000001 1.7320508075688776 2.000000000000001
vertex 2 1.7320508075688772 4
vertex 2.5 0.8660254037844388 4
endloop
endfacet
facet normal 0.8660254037844386 0.5000000000000001 4.956148397392286e-16
outer loop
vertex 2.000000000000001 1.7320508075688776 2.000000000000001
vertex 2.5 0.8660254037844388 4
vertex 2.5 0.8660254037844386 0
endloop
endfacet
facet normal 0.8660254037844386 0.5000000000000001 4.956148397392286e-16
outer loop
vertex 2.000000000000001 1.7320508075688776 2.000000000000001
vertex 2.5 0.8660254037844386 0
vertex 2 1.7320508075688772 0
endloop
endfacet
facet normal 0 -1 0
outer loop
vertex 2 0 0
vertex 2 0 4
vertex 1.0000000000000004 1.1102230246251565e-16 4
endloop
endfacet
facet normal 0 -1 0
outer loop
vertex 2 0 0
vertex 1.0000000000000004 1.1102230246251565e-16 4
vertex 0.9999999999999998 0 0
endloop
endfacet
facet normal -0.8 0.6 4.4408920985006264e-17
outer loop
vertex 0.5000000000000002 0.8660254037844386 5
vertex 0.5000000000000003 0.8660254037844388 4
vertex 0.5000000000000001 0.8660254037844386 3
endloop
endfacet
facet normal -0.8 0.6 4.4408920985006264e-17
outer loop
vertex 0.5000000000000002 0.8660254037844386 5
vertex 0.5000000000000001 0.8660254037844386 3
vertex -0.5 0.8660254037844386 3
endloop
endfacet
facet normal -0.8 0.6 4.4408920985006264e-17
outer loop
vertex 0.5000000000000002 0.8660254037844386 5
vertex -0.5 0.8660254037844386 3
vertex -0.5 0.8660254037844386 5
endloop
endfacet
facet normal -0.8660254037844387 0.5000000000000001 0
outer loop
vertex 0.5000000000000003 0.8660254037844388 4
vertex 1 1.7320508075688772 4
vertex 1 1.7320508075688772 3
endloop
endfacet
facet normal -0.8660254037844387 0.5000000000000001 0
outer loop
vertex 0.5000000000000003 0.8660254037844388 4
vertex 1 1.7320508075688772 3
vertex 0.5000000000000001 0.8660254037844386 3
endloop
endfacet
facet normal 0 0 1
outer loop
vertex -0.5 2.598076211353316 3
vertex -1 1.7320508075688767 3
vertex -0.5 0.8660254037844386 3
endloop
endfacet
facet normal 0 0 1
outer loop
vertex -0.5 2.598076211353316 3
vertex -0.5 0.8660254037844386 3
vertex 0.5000000000000001 0.8660254037844386 3
endloop
endfacet
facet normal 0 0 1
outer loop
vertex -0.5 2.598076211353316 3
vertex 0.5000000000000001 0.8660254037844386 3
vertex 1 1.7320508075688772 3
endloop
endfacet
facet normal 0 0 1
outer loop
vertex -0.5 2.598076211353316 3
vertex 1 1.7320508075688772 3
vertex 0.5000000000000002 2.598076211353316 3
endloop
endfacet
facet normal -0.9486832980505138 -0.31622776601683805 7.021666937153402e-17
outer loop
vertex 0.5000000000000002 2.598076211353316 3
vertex 0.5 2.5980762113533165 2.000000000000001
vertex 0.5 2.598076211353316 0
endloop
endfacet
facet normal -0.9486832980505138 -0.31622776601683805 7.021666937153402e-17
outer loop
vertex 0.5000000000000002 2.598076211353316 3
vertex 0.5 2.598076211353316 0
vertex -0.5 2.598076211353316 0
endloop
endfacet
facet normal -0.9486832980505138 -0.31622776601683805 7.021666937153402e-17
outer loop
vertex 0.5000000000000002 2.598076211353316 3
vertex -0.5 2.598076211353316 0
vertex -0.5 2.598076211353316 3
endloop
endfacet
facet normal -0.8660254037844389 0.49999999999999967 0
outer loop
vertex -1 1.7320508075688767 3
vertex -0.5 2.598076211353316 3
vertex -0.5 2.598076211353316 0
endloop
endfacet
facet normal -0.8660254037844389 0.49999999999999967 0
outer loop
vertex -1 1.7320508075688767 3
vertex -0.5 2.598076211353316 0
vertex -1 1.7320508075688772 0
endloop
endfacet
facet normal -0.8660254037844389 -0.4999999999999998 0
outer loop
vertex -0.5 0.8660254037844386 3
vertex -1 1.7320508075688767 3
vertex -1 1.7320508075688772 0
endloop
endfacet
facet normal -0.8660254037844389 -0.4999999999999998 0
outer loop
vertex -0.5 0.8660254037844386 3
vertex -1 1.7320508075688772 0
vertex -0.5000000000000002 0.8660254037844386 0
endloop
endfacet
facet normal -4.440892098500624e-16 1 2.220446049250312e-16
outer loop
vertex 2 1.7320508075688772 4
vertex 2.000000000000001 1.7320508075688776 2.000000000000001
vertex 0.9999999999999999 1.7320508075688772 2
endloop
endfacet
facet normal -4.440892098500624e-16 1 2.220446049250312e-16
outer loop
vertex 2 1.7320508075688772 4
vertex 0.9999999999999999 1.7320508075688772 2
vertex 1 1.7320508075688772 3
endloop
endfacet
facet normal -4.440892098500624e-16 1 2.220446049250312e-16
outer loop
vertex 2 1.7320508075688772 4
vertex 1 1.7320508075688772 3
vertex 1 1.7320508075688772 4
endloop
endfacet
facet normal 0.8660254037844386 0.4999999999999999 0
outer loop
vertex 0.5000000000000002 2.598076211353316 3
vertex 1 1.7320508075688772 3
vertex 0.9999999999999999 1.7320508075688772 2
endloop
endfacet
facet normal 0.8660254037844386 0.4999999999999999 0
outer loop
vertex 0.5000000000000002 2.598076211353316 3
vertex 0.9999999999999999 1.7320508075688772 2
vertex 0.5 2.5980762113533165 2.000000000000001
endloop
endfacet
facet normal 0 0 1
outer loop
vertex 1.0000000000000002 3.4641016151377553 2.000000000000001
vertex 0.5 2.5980762113533165 2.000000000000001
vertex 0.9999999999999999 1.7320508075688772 2
endloop
endfacet
facet normal 0 0 1
outer loop
vertex 1.0000000000000002 3.4641016151377553 2.000000000000001
vertex 0.9999999999999999 1.7320508075688772 2
vertex 2.000000000000001 1.7320508075688776 2.000000000000001
endloop
endfacet
facet normal 0 0 1
outer loop
vertex 1.0000000000000002 3.4641016151377553 2.000000000000001
vertex 2.000000000000001 1.7320508075688776 2.000000000000001
vertex 2.500000000000001 2.598076211353316 2.000000000000001
endloop
endfacet
facet normal 0 0 1
outer loop
vertex 1.0000000000000002 3.4641016151377553 2.000000000000001
vertex 2.500000000000001 2.598076211353316 2.000000000000001
vertex 2 3.4641016151377544 2
endloop
endfacet
facet normal 0.8660254037844386 0.4999999999999999 0
outer loop
vertex 2 3.4641016151377544 2
vertex 2.500000000000001 2.598076211353316 2.000000000000001
vertex 2.5 2.598076211353316 0
endloop
endfacet
facet normal 0.8660254037844386 0.4999999999999999 0
outer loop
vertex 2 3.4641016151377544 2
vertex 2.5 2.598076211353316 0
vertex 2 3.4641016151377544 0
endloop
endfacet
facet normal 0 1 0
outer loop
vertex 2 3.4641016151377544 2
vertex 2 3.4641016151377544 0
vertex 1 3.4641016151377544 0
endloop
endfacet
facet normal 0 1 0
outer loop
vertex 2 3.4641016151377544 2
vertex 1 3.4641016151377544 0
vertex 1.0000000000000002 3.4641016151377553 2.000000000000001
endloop
endfacet
endsolid csg.js
